PathFileType	4	(X/Y/Z)	Patient4_TMGait_0pt4_03_right_15.trc.trc
DataRate	CameraRate	NumFrames	NumMarkers	Units	OrigDataRate	OrigDataStartFrame	OrigNumFrames
72.916666666667	72.916666666667	4	33	mm	72.916666666667	1	       141
Frame#	Time	Sacral			L.Shoulder			Chest			R.Shoulder			Neck			R.ASIS			L.ASIS			R.Thigh.Superior			R.Thigh.Lateral			R.Thigh.Inferior			R.Patella			L.Thigh.Superior			L.Thigh.Lateral			L.Thigh.Inferior			L.Patella			L.Shank.Superior			L.Shank.Lateral			L.Shank.Inferior			R.Shank.Superior			R.Shank.Lateral			R.Shank.Inferior			R.Heel			R.Midfoot.Superior			R.Midfoot.Lateral			R.Toe			L.Heel			L.Midfoot.Lateral			L.Midfoot.Superior			L.Toe			L.Elbow			L.Wrist			R.Elbow			R.Wrist			
		X1	Y1	Z1	X2	Y2	Z2	X3	Y3	Z3	X4	Y4	Z4	X5	Y5	Z5	X6	Y6	Z6	X7	Y7	Z7	X8	Y8	Z8	X9	Y9	Z9	X10	Y10	Z10	X11	Y11	Z11	X12	Y12	Z12	X13	Y13	Z13	X14	Y14	Z14	X15	Y15	Z15	X16	Y16	Z16	X17	Y17	Z17	X18	Y18	Z18	X19	Y19	Z19	X20	Y20	Z20	X21	Y21	Z21	X22	Y22	Z22	X23	Y23	Z23	X24	Y24	Z24	X25	Y25	Z25	X26	Y26	Z26	X27	Y27	Z27	X28	Y28	Z28	X29	Y29	Z29	X30	Y30	Z30	X31	Y31	Z31	X32	Y32	Z32	X33	Y33	Z33	

1	18.740000000000	837.453313898109	1006.697842019948	430.222746744116	1031.218597333996	1431.983283326910	242.514335279692	1127.466995279762	1365.411304181943	408.438324045128	1037.796978685970	1440.936140470420	578.817489096154	1011.323312223694	1496.115462561164	397.965268017582	1063.229820340805	946.638700547865	554.594375830568	1058.127242754864	960.515871302689	280.962684300991	1141.512970425493	769.620248719570	531.561339425147	1094.205578917414	651.103131414806	606.740492931774	1185.983921535520	607.351921590389	533.039603828675	1197.983917968649	494.772880139040	558.716077912752	1109.535874665338	749.586622334220	312.340792867611	1023.081987903613	634.007113099402	249.863371515657	1105.979984454762	556.178549911409	316.385129174835	1106.215462185179	485.551882200585	326.803789649027	1074.653725600438	412.678772311680	318.186392403221	982.031631991266	304.253196654371	261.952300628090	1018.829030680084	189.803971839211	334.674147068645	1116.932587484628	424.473513106698	566.460726781295	990.719867478151	396.224541333488	623.835770503460	970.102278190546	286.402354986738	579.104602157508	769.296379660550	249.391601879264	548.182761089406	923.406367637306	160.499490012679	590.730067269422	814.012104649079	176.535439776239	619.761899720650	967.280142659813	37.280715981519	613.284005060363	881.294088336612	38.989410130374	368.450695305277	957.018110079862	35.547599871753	289.821417072960	1040.096626229198	95.858751056618	320.806443861665	1169.442730689629	41.187149366163	293.789300058915	991.360972487011	1094.447542205633	97.604070499011	1166.275590150995	898.262852205584	109.938943280246	976.517364655297	1102.321882207733	709.151235180226	1044.535599782899	851.790301465680	739.895153878025	
2	18.753714285714	836.489127713656	1007.841956561957	428.314113810616	1032.698132570727	1432.790588375905	241.495177542792	1127.112519748567	1366.346795731890	408.422461598350	1035.780080132550	1442.114157874336	577.739741233282	1011.273877605622	1496.993971924771	396.810459864402	1061.340646355750	948.322047968617	554.535421569920	1058.209015592796	961.054051759034	280.941410140102	1141.723801939346	773.754143406449	531.078856025854	1096.916331528837	654.719203780309	606.651362106903	1189.263729951465	612.483909041126	532.840201934154	1203.706700166160	500.390404983551	558.741696501144	1107.516281357147	748.995775818922	312.786213145688	1019.617366586644	634.204475595761	249.921192180372	1101.021926563999	555.679861097736	316.687696989464	1100.471504973886	485.262360416566	327.010133155015	1068.952080898972	412.765298056830	318.118335748246	976.218573785943	304.422426755900	261.894161135391	1012.980948807369	189.908624642390	334.622613386825	1124.560847209614	428.108466382123	566.157186864584	999.217025549396	396.052243556596	623.291408364792	981.865732035449	285.811680522747	578.310294270148	782.307955899289	242.362118947140	547.071433942796	939.140022723436	158.647815919216	589.418384209161	829.439108557012	170.884659882425	618.564119710332	987.341383640292	37.088645662284	611.632795021942	875.368948120217	39.027019249461	368.418745997434	951.162386552396	35.568202728675	289.786781331633	1034.253172977044	95.869135494178	320.727287872389	1163.584697081022	41.166520435322	293.721844840004	996.221208918491	1095.429925531173	95.755738179849	1175.583874469038	904.417255785496	112.166972422528	970.424221962851	1104.117576380879	707.289797092092	1033.902406066591	852.785758900800	739.450742666588	
3	18.767428571429	835.519981464556	1008.972742675299	426.421728145260	1034.216937271758	1433.566234557396	240.514059627884	1126.779631852024	1367.245033279179	408.443693776754	1033.789677421648	1443.267922454515	576.689102803594	1011.245472250135	1497.845148613113	395.687018451503	1059.419435893251	949.965431727421	554.505700195687	1058.328784365122	961.608093942265	280.949950058650	1141.863187260124	777.806890293999	530.660787806716	1099.486808179524	658.246723525308	606.615031285127	1192.361089415415	617.477327511940	532.697659757643	1209.198462221555	505.925145151000	558.842458034352	1105.449154387113	748.397044437843	313.299403483551	1016.156450497962	634.414801530426	249.969054139730	1096.053597582220	555.184152946619	317.010203958987	1094.714507514032	484.973791212914	327.224962788485	1063.245692314965	412.854207872088	318.055434204148	970.413839510830	304.587206758782	261.836876864039	1007.145373092814	190.011414180794	334.573559749703	1132.040910741039	431.622268612983	565.929544590425	1007.681459746810	395.554298890216	622.850115880212	993.770416261792	284.900224761814	577.623116184278	795.576346064322	234.703800811947	546.122113376431	955.231611587790	156.471347178725	588.241672071271	845.246621946878	164.718092677600	617.518179036422	1007.943668978091	36.697740997927	610.114258476834	869.471828954512	39.059400462092	368.387862208222	945.330166022582	35.585673909149	289.754576039419	1028.432877280393	95.878558355987	320.652942575929	1157.751100710741	41.148857310635	293.657107627796	1001.024137608053	1096.381741249011	93.974078906316	1184.772039172143	910.556866079620	114.484528604048	964.448220115024	1105.865334029207	705.444872360226	1023.532188824700	853.770504980254	738.983023333436	
4	18.781142857143	834.550337452603	1010.063991649980	424.579979262582	1035.798561179173	1434.269908521789	239.619659600547	1126.493121870465	1368.057388705827	408.540433901578	1031.871364411969	1444.357644869361	575.706490487668	1011.262850493135	1498.632936595093	394.639006492974	1057.457210230957	951.511402918186	554.538812382751	1058.507310755009	962.173719877480	281.019092765138	1141.829914758175	781.623229634351	530.374038572256	1101.699614966462	661.546210362750	606.680324483524	1195.013884754153	622.117981496834	532.660249477562	1214.130975535761	511.231179567367	559.058936224041	1103.310793314422	747.783201536942	313.927786144140	1012.727196713054	634.641103599162	250.002535470056	1091.104381810176	554.692760390302	317.367492891861	1088.976245386921	484.683228653088	327.455648836505	1057.570659292889	412.940074710616	318.005724688100	964.660605670703	304.740846741925	261.783563751135	1001.361475891696	190.106684537749	334.531345009687	1139.146871188691	434.886680833934	565.837012326277	1016.051983874802	394.472020156998	622.615892453378	1005.897769697455	283.461072571915	577.145270434480	809.394067892485	225.976773729566	545.499250149435	971.953795892834	153.818635272250	587.324809924659	861.797935594824	157.741142651963	616.782547258352	1029.473280979759	36.136131749299	608.863556946864	863.647938918966	39.083182585787	368.359424622111	939.562469525847	35.597767407233	289.726476746003	1022.676649008150	95.885705207637	320.587717996819	1151.983617935854	41.135421980758	293.598202247472	1005.703335720407	1097.256808006621	92.344990774789	1193.684876201777	916.620951807305	116.973437164324	958.748800740966	1107.497704723981	703.650231893247	1013.751017993507	854.711227932077	738.471991263836	
